<svg width="25" height="24" viewBox="0 0 25 24" fill="none" xmlns="http://www.w3.org/2000/svg">
<path d="M10.4104 0.835571C4.67322 0.835571 0 5.06742 0 10.2627C0 15.4581 4.67322 19.6899 10.4104 19.6899C12.9052 19.6899 15.1964 18.8876 16.9921 17.5559L23.2078 23.1846C23.3038 23.2751 23.4187 23.3473 23.5458 23.3971C23.6729 23.4468 23.8098 23.4731 23.9483 23.4744C24.0868 23.4757 24.2242 23.4519 24.3524 23.4045C24.4806 23.3571 24.5971 23.287 24.6951 23.1983C24.793 23.1096 24.8704 23.0041 24.9228 22.888C24.9751 22.7719 25.0014 22.6474 24.9999 22.522C24.9985 22.3966 24.9695 22.2727 24.9146 22.1576C24.8596 22.0424 24.7798 21.9384 24.6799 21.8515L18.4642 16.2228C19.9348 14.5968 20.8208 12.522 20.8208 10.2627C20.8208 5.06742 16.1475 0.835571 10.4104 0.835571ZM10.4104 2.721C15.0223 2.721 18.7387 6.08639 18.7387 10.2627C18.7387 14.4391 15.0223 17.8045 10.4104 17.8045C5.79845 17.8045 2.08208 14.4391 2.08208 10.2627C2.08208 6.08639 5.79845 2.721 10.4104 2.721Z" fill="black" fill-opacity="0.6"/>
</svg>
