<svg width="339" height="187" viewBox="0 0 339 187" fill="none" xmlns="http://www.w3.org/2000/svg">
<path d="M249.023 182.608C247.989 182.608 247.22 182.182 246.716 181.305C244.648 177.823 247.246 168.173 249.792 160.676C252.974 151.319 257.243 141.855 259.868 137.044L259.921 136.964L270.873 151.93V151.957C270.687 152.276 258.224 182.608 249.023 182.608Z" fill="#336B3C"/>
<path d="M302.587 182.608C301.499 182.608 300.677 182.129 300.094 181.172C296.302 174.766 305.318 147.996 311.284 137.044L311.311 136.964L322.792 151.93V151.957C322.686 152.276 311.788 182.608 302.587 182.608Z" fill="#336B3C"/>
<path d="M334.328 182.608C324.729 182.608 312.61 162.431 312.107 161.58H284.635C285.192 162.909 291.371 177.504 288.719 181.571C288.268 182.262 287.579 182.608 286.677 182.608C275.487 182.608 258.675 147.278 254.273 132.844C253.531 130.371 253.69 128.245 254.724 126.809C255.546 125.693 256.872 125.081 258.437 125.081C260.16 125.081 262.096 125.799 263.873 127.128C265.888 128.617 267.744 130.85 269.176 133.561H315.474L315.501 133.588C315.766 133.96 341.143 171.522 338.04 180.534C337.722 181.438 337.112 182.049 336.237 182.315C335.654 182.501 334.991 182.608 334.328 182.608Z" fill="#336B3C"/>
<path d="M284.635 161.58C284.582 161.5 282.726 156.981 279.835 151.186V151.16V151.133C280.074 148.528 283.548 145.364 287.658 145.364C288.135 145.364 288.612 145.418 289.063 145.497C295.799 146.747 298.344 152.994 298.636 153.712C300.041 152.701 301.526 152.196 303.064 152.196C305.716 152.196 307.519 153.738 307.519 153.738C309.375 157.167 312 161.421 312.027 161.447L312.08 161.527H284.635V161.58Z" fill="#98D8F4"/>
<path d="M323.774 152.542C319.107 152.542 315.023 149.538 313.618 145.046C312.451 141.35 313.379 137.31 316.057 134.492L316.11 134.439L316.137 134.492C317.887 137.124 322.448 144.062 327.009 151.957L327.035 152.01L326.982 152.037C325.922 152.383 324.861 152.542 323.774 152.542Z" fill="#98D8F4"/>
<path d="M316.031 167.987C315.872 167.987 315.713 167.907 315.607 167.774C313.247 164.451 311.709 161.82 311.682 161.82C311.656 161.766 308.315 156.237 306.22 152.542C306.087 152.276 306.167 151.957 306.432 151.824C306.697 151.691 307.015 151.771 307.148 152.037C309.243 155.732 312.557 161.235 312.61 161.314C312.637 161.341 314.148 163.92 316.482 167.216C316.641 167.455 316.588 167.774 316.349 167.96C316.243 167.96 316.137 167.987 316.031 167.987Z" fill="black"/>
<path d="M266.736 161.341C266.551 161.341 266.365 161.235 266.285 161.075C264.827 158.444 263.315 155.519 261.618 152.064C261.486 151.798 261.592 151.479 261.857 151.346C262.122 151.213 262.44 151.319 262.573 151.585C264.244 155.014 265.755 157.938 267.187 160.544C267.32 160.809 267.24 161.128 266.975 161.261C266.922 161.315 266.816 161.341 266.736 161.341Z" fill="black"/>
<path d="M299.617 123.247C300.174 118.595 302.852 109.371 306.565 109.105C306.591 109.105 306.618 109.105 306.644 109.105C307.148 109.105 307.705 109.397 308.288 110.009C310.224 112.029 312.133 117.293 311.921 121.918V121.971L299.617 123.3V123.247Z" fill="#336B3C"/>
<path d="M317.967 142.839C316.031 142.839 313.989 142.6 311.842 142.148C303.568 140.393 298.61 135.343 295.905 131.382C292.962 127.075 291.026 121.758 290.761 117.16C290.602 114.342 291.158 112.348 292.219 112.002C292.484 111.923 292.803 111.87 293.121 111.87C296.966 111.87 303.224 118.436 303.648 118.914C303.993 118.781 306.883 117.718 310.595 117.718C314.891 117.718 320.831 119.18 324.888 126.118H332.366C334.116 126.118 335.548 127.554 335.548 129.282C335.548 129.547 335.521 129.813 335.468 130.052C333.957 135.954 328.468 142.839 317.967 142.839Z" fill="#336B3C"/>
<path d="M303.648 119.526C303.515 119.526 303.356 119.472 303.25 119.366C303.25 119.366 302.242 118.276 300.81 117C300.598 116.814 300.572 116.468 300.757 116.256C300.943 116.043 301.288 116.017 301.5 116.203C302.958 117.505 303.966 118.595 303.993 118.622C304.205 118.834 304.178 119.18 303.966 119.366C303.913 119.472 303.78 119.526 303.648 119.526Z" fill="black"/>
<path d="M317.993 143.344C316.031 143.344 313.936 143.105 311.762 142.653C306.193 141.51 301.102 138.479 297.39 134.146C295.878 134.04 288.294 132.87 281.426 120.589C277.661 113.863 274.32 105.649 271.111 97.7007C266.524 86.4028 261.777 74.7061 255.573 66.5451C252.258 62.1854 248.837 59.1549 245.072 57.3472C240.882 55.3003 236.374 54.7687 231.336 55.7522C225.768 56.8156 224.468 63.2753 222.824 71.4364C220.968 80.6873 218.873 91.1612 209.778 97.4082C209.539 97.5677 209.195 97.5146 209.036 97.2753C208.876 97.0361 208.929 96.6905 209.168 96.531C217.892 90.5232 219.96 80.262 221.764 71.2237C223.408 63.0095 224.84 55.9117 231.098 54.7155C253.027 50.5153 262.706 74.3074 272.039 97.3285C275.248 105.25 278.563 113.438 282.301 120.11C289.461 132.923 297.522 133.136 297.602 133.136C297.761 133.136 297.92 133.216 297.999 133.322C301.553 137.576 306.485 140.526 311.921 141.643C315.315 142.361 318.47 142.493 321.255 142.068C321.546 142.015 321.812 142.228 321.865 142.52C321.918 142.812 321.705 143.078 321.414 143.131C320.353 143.238 319.213 143.344 317.993 143.344Z" fill="black"/>
<path d="M335.07 131.249C332.472 130.983 330.456 128.803 330.377 126.171V126.118H332.365C334.116 126.118 335.547 127.554 335.547 129.282C335.547 129.547 335.521 129.813 335.468 130.052C335.362 130.425 335.256 130.823 335.123 131.196L335.07 131.249Z" fill="#A62323"/>
<path d="M319.505 127.607C319.293 127.607 319.081 127.474 319.001 127.235L318.789 126.597C318.709 126.331 318.842 126.012 319.134 125.932C319.399 125.826 319.717 125.985 319.796 126.278L320.009 126.916C320.088 127.182 319.956 127.501 319.664 127.58C319.611 127.607 319.558 127.607 319.505 127.607Z" fill="black"/>
<path d="M303.648 119.526C303.435 119.526 303.223 119.393 303.144 119.18C303.038 118.914 303.197 118.595 303.462 118.489C305.981 117.585 308.765 117.16 311.497 117.266C311.788 117.266 312.027 117.532 312 117.824C312 118.117 311.762 118.356 311.444 118.329C308.845 118.223 306.22 118.622 303.833 119.499C303.78 119.526 303.701 119.526 303.648 119.526Z" fill="black"/>
<path d="M298.079 122.45C297.893 122.45 297.708 122.343 297.628 122.184L295.242 117.931C295.109 117.665 295.189 117.346 295.454 117.213C295.719 117.08 296.037 117.16 296.17 117.425L298.556 121.679C298.689 121.945 298.609 122.264 298.344 122.397C298.265 122.423 298.158 122.45 298.079 122.45Z" fill="black"/>
<path d="M94.1047 149.664L94.1313 149.637C96.7299 145.73 100.469 140.971 105.242 135.468L105.295 135.415L105.321 135.468C108.132 140.067 109.591 145.331 109.591 150.727V150.754L100.31 158.011L94.1047 149.664Z" fill="black"/>
<path d="M228.916 186.402C224.859 182.973 220.537 178.267 216.029 172.419L216.002 172.339H216.029C220.298 170.346 225.045 169.282 229.738 169.282H229.791C230.109 169.282 230.454 169.282 230.772 169.309H230.799L236.765 179.357L228.916 186.402Z" fill="black"/>
<path d="M209.214 80.6005C209.188 80.6005 207.12 79.7765 206.854 77.0915C206.589 74.4332 208.817 70.6849 208.843 70.6584L208.87 70.6318L216.931 71.19L216.904 71.2432C216.003 74.0079 212.821 79.6435 209.267 80.6005H209.214Z" fill="black"/>
<path d="M118.262 121.539C112.11 117.179 104.473 107.184 103.386 100.378C103.067 98.3847 103.306 96.8163 104.155 95.6998C104.208 95.6466 105.48 94.1845 109.087 94.1845C110.996 94.1845 113.197 94.6098 115.663 95.4339C122.451 97.6935 131.759 106.253 131.865 106.333L131.891 106.36L131.865 106.386C126.614 114.281 118.421 121.486 118.341 121.539L118.315 121.565L118.262 121.539Z" fill="black"/>
<path d="M112.163 129.248L112.852 127.839C116.087 124.383 118.421 122.017 118.606 121.831C119.004 121.486 127.065 114.335 132.209 106.599L134.569 103.037L158.169 121.565L154.245 126.244C151.991 129.062 149.074 131.827 145.998 134.777C143.638 137.01 141.225 139.323 138.892 141.848L135.577 144.48L117.837 150.674L112.163 129.248Z" fill="white"/>
<path d="M134.702 103.808L157.427 121.618L153.847 125.872C153.847 125.872 153.847 125.872 153.82 125.898C151.593 128.69 148.676 131.428 145.6 134.378C143.267 136.611 140.827 138.924 138.494 141.423L135.285 143.975L118.182 149.956L112.719 129.301L113.276 128.131C116.405 124.782 118.712 122.469 118.951 122.203C119.508 121.725 127.489 114.574 132.633 106.865L134.702 103.808ZM134.437 102.266L131.758 106.307C126.508 114.175 118.314 121.379 118.235 121.459C118.208 121.486 115.795 123.905 112.401 127.547L111.579 129.195L117.439 151.339L135.815 144.932L139.236 142.221C141.57 139.722 144.009 137.382 146.369 135.149C149.472 132.199 152.388 129.407 154.669 126.59L158.938 121.486L134.437 102.266Z" fill="black"/>
<path d="M105.666 165.189C110.916 155.938 110.757 144.586 105.242 135.522L105.215 135.495L105.242 135.468C107.469 132.916 109.882 130.232 112.428 127.52L112.481 127.467L112.507 127.52C112.56 127.6 118.818 136.638 119.136 146.607L121.788 143.47C124.069 140.785 127.383 139.243 130.91 139.243C132.899 139.243 134.887 139.748 136.638 140.705L139.289 142.167L139.236 142.221C133.694 148.175 127.277 156.629 126.826 169.096C126.322 182.973 123.193 185.206 121.496 186.429L121.443 186.455L105.666 165.189Z" fill="#F9494B"/>
<path d="M209.904 162.955C204.812 155.3 200.092 147.271 195.876 139.084L192.694 132.97L219.423 125.739L222.022 128.796C224.329 132.597 226.264 135.761 227.776 138.206L228.943 140.971L229.977 159.925L212.025 165.082L209.904 162.955Z" fill="white"/>
<path d="M219.237 126.35L221.597 129.115C223.878 132.89 225.787 136.027 227.298 138.446L228.412 141.104L229.42 159.526L212.21 164.471L210.328 162.61C205.236 154.98 200.543 146.979 196.353 138.818L193.49 133.289L219.237 126.35ZM219.609 125.154L191.925 132.624L195.399 139.323C199.615 147.537 204.361 155.592 209.479 163.301L211.866 165.694L230.507 160.35L229.446 140.891L228.227 137.994C226.715 135.522 224.753 132.332 222.446 128.504L219.609 125.154Z" fill="black"/>
<path d="M103.439 1.59497C112.72 8.24079 120.728 6.14071 125.978 4.2533C133.403 1.59497 141.358 -2.61664e-05 151.169 8.50662L149.313 11.9625C135.789 10.6333 132.687 23.4996 119.349 31.1024C107.681 37.7482 96.0139 31.8999 96.0139 31.8999L103.439 1.59497Z" fill="#E2D66B"/>
<path d="M237.561 77.3307C236.977 77.3307 236.314 77.0383 235.572 76.48L235.466 76.4003C232.31 74.0078 230.056 72.2799 223.825 71.2697C222.658 71.0836 220.643 70.9773 218.071 70.8178L216.851 70.738L208.896 70.2064L200.782 69.3557L210.275 51.4651L217.09 52.369C228.359 54.2298 236.182 55.8514 241.83 61.0351C244.747 63.6935 245.118 65.2087 244.932 66.0062C244.773 66.7505 244.031 67.043 243.819 67.1227C243.659 67.1759 243.553 67.3088 243.5 67.4683C243.447 67.6278 243.474 67.7873 243.58 67.9468C243.739 68.1594 244.508 69.3291 244.243 70.3659C244.084 71.0039 243.58 71.5089 242.758 71.9077L242.413 72.0406C242.148 72.1204 242.015 72.4128 242.068 72.652C242.095 72.8115 242.281 73.6622 241.83 74.3268C241.512 74.8053 240.928 75.0711 240.08 75.1509C239.868 75.1774 239.708 75.3104 239.629 75.4964C239.576 75.6825 238.939 77.3307 237.561 77.3307Z" fill="white"/>
<path d="M210.593 52.0234L217.037 52.8741C228.227 54.7349 235.97 56.3299 241.512 61.4073C244.482 64.1188 244.561 65.4214 244.455 65.8733C244.349 66.3518 243.792 66.591 243.686 66.6176C243.368 66.7239 243.129 66.9898 243.05 67.3088C242.97 67.6278 242.997 67.9734 243.209 68.2392C243.501 68.6645 243.951 69.5418 243.792 70.2329C243.686 70.6849 243.288 71.0836 242.625 71.4026L242.307 71.5089C241.803 71.695 241.512 72.2267 241.618 72.7584C241.644 72.8381 241.777 73.5293 241.459 74.0078C241.22 74.3534 240.769 74.5394 240.08 74.6192C239.682 74.6724 239.337 74.9382 239.205 75.3103C239.178 75.3635 238.648 76.7724 237.614 76.7724C237.163 76.7724 236.58 76.5066 235.943 76.0281L235.837 75.9484C232.761 73.5824 230.322 71.7482 223.984 70.738C222.791 70.5519 220.749 70.419 218.177 70.2861L216.984 70.2064L209.029 69.6747L201.684 68.9038L210.593 52.0234ZM210.01 50.8803L199.96 69.8076L208.87 70.738L216.825 71.2697L218.018 71.3494C220.564 71.5089 222.579 71.6153 223.719 71.8014C229.791 72.7584 232.019 74.4597 235.121 76.8256L235.227 76.9053C236.049 77.5433 236.845 77.8624 237.534 77.8624C239.258 77.8624 240 75.9749 240.106 75.7091C241.114 75.6028 241.83 75.2572 242.254 74.6458C242.838 73.7951 242.626 72.7849 242.572 72.5457L242.944 72.4128C243.951 71.9343 244.561 71.2963 244.747 70.4988C245.065 69.2228 244.217 67.9202 244.004 67.6278C244.27 67.5215 245.224 67.1227 245.436 66.1125C245.754 64.7302 244.667 62.896 242.175 60.6098C236.394 55.3197 228.519 53.6981 217.143 51.8107L210.01 50.8803Z" fill="black"/>
<path d="M222.393 128.557C215.154 116.621 203.778 97.5872 189.459 73.5294C198.501 77.7827 206.748 80.5208 209.24 80.6005C204.998 78.846 208.922 70.685 208.922 70.685C209.108 70.3394 210.062 68.5849 214.04 62.0454C217.328 56.6224 217.195 51.9703 217.195 51.9172V51.8108H217.142C215.976 51.6247 214.756 51.4918 213.51 51.2792C212.343 51.0931 211.15 50.907 209.93 50.6943C202.505 49.4715 193.702 46.3878 185.137 42.0548C176.837 37.8546 169.677 32.9367 164.957 28.2049L164.931 28.1783L161.245 29.8796L152.176 20.1501L152.15 20.2299C146.899 39.0774 132.103 62.3378 104.154 95.6998C104.154 95.6998 113.912 90.2237 131.785 106.439C132.633 107.264 144.407 119.199 154.563 126.59C166.628 135.335 178.614 139.429 192.27 139.429C193.33 139.429 194.391 139.403 195.399 139.403C212.714 138.605 222.287 128.716 222.393 128.61V128.557V128.557Z" fill="#F696BB"/>
<path d="M239.523 75.6294C239.364 75.6294 239.205 75.5496 239.099 75.4167C235.44 70.233 228.492 67.1228 228.413 67.0962C228.147 66.9899 228.015 66.6708 228.147 66.405C228.254 66.1392 228.572 66.0063 228.837 66.1392C229.129 66.2721 236.129 69.4089 239.947 74.8319C240.107 75.0711 240.054 75.3901 239.815 75.5762C239.735 75.6028 239.629 75.6294 239.523 75.6294Z" fill="black"/>
<path d="M242.122 72.599C241.936 72.599 241.777 72.5192 241.671 72.3597C237.879 66.5912 229.579 63.5075 229.5 63.4809C229.235 63.3746 229.076 63.0822 229.182 62.7897C229.288 62.5239 229.579 62.3644 229.871 62.4707C230.216 62.6037 238.595 65.7139 242.573 71.7749C242.732 72.0141 242.679 72.3597 242.414 72.5192C242.334 72.5724 242.228 72.599 242.122 72.599Z" fill="black"/>
<path d="M243.341 67.9735C243.182 67.9735 243.049 67.9203 242.943 67.7874C237.428 61.5669 231.303 59.52 231.25 59.52C230.958 59.4403 230.825 59.1213 230.905 58.8554C230.984 58.563 231.303 58.4301 231.568 58.5099C231.833 58.5896 238.038 60.6365 243.739 67.0963C243.925 67.3089 243.925 67.6545 243.686 67.8406C243.58 67.9203 243.474 67.9735 243.341 67.9735Z" fill="black"/>
<path d="M150.055 32.8304C147.138 32.8304 144.752 30.4379 144.752 27.5137C144.752 24.5895 147.138 22.197 150.055 22.197C152.972 22.197 155.359 24.5895 155.359 27.5137C155.359 30.4379 152.972 32.8304 150.055 32.8304Z" fill="white"/>
<path d="M150.055 22.7553C152.681 22.7553 154.828 24.9085 154.828 27.5403C154.828 30.172 152.681 32.3253 150.055 32.3253C147.43 32.3253 145.282 30.172 145.282 27.5403C145.282 24.8819 147.43 22.7553 150.055 22.7553ZM150.055 21.692C146.847 21.692 144.222 24.2971 144.222 27.5403C144.222 30.7568 146.82 33.3886 150.055 33.3886C153.29 33.3886 155.889 30.7834 155.889 27.5403C155.863 24.2971 153.264 21.692 150.055 21.692Z" fill="black"/>
<path d="M161.643 32.2189C159.601 32.2189 157.4 31.2087 155.278 29.2681C145.998 20.7881 145.892 16.0031 148.755 10.9788C148.755 10.9788 149.896 9.09142 151.911 7.25717C154.563 4.81151 157.426 3.58868 160.396 3.58868C160.608 3.58868 160.847 3.58869 161.086 3.61527C165.328 3.8811 168.961 10.3142 169.518 18.5551C169.836 23.3666 168.696 27.5668 166.336 30.0922C165.01 31.4745 163.393 32.2189 161.643 32.2189Z" fill="white"/>
<path d="M160.396 4.1204C160.609 4.1204 160.821 4.1204 161.033 4.14698C162.836 4.25332 164.639 5.68881 166.098 8.18764C167.662 10.8725 168.696 14.5676 168.961 18.5817C169.28 23.1806 168.139 27.3542 165.938 29.7201C164.719 31.0227 163.234 31.7138 161.643 31.7138C159.733 31.7138 157.665 30.7303 155.65 28.896C146.634 20.6552 146.502 16.0563 149.206 11.2713C149.365 11.0055 153.661 4.1204 160.396 4.1204ZM160.396 3.05707C152.866 3.05707 148.305 10.7396 148.305 10.7396C145.096 16.3487 145.971 21.4793 154.934 29.6669C157.294 31.8202 159.574 32.7506 161.643 32.7506C166.84 32.7506 170.579 26.7162 170.022 18.5019C169.439 9.8358 165.567 3.34949 161.112 3.08365C160.874 3.05707 160.635 3.05707 160.396 3.05707Z" fill="black"/>
<path d="M164.772 19.8843C164.639 19.8843 164.533 19.8311 164.427 19.7514C164.215 19.5653 164.188 19.2197 164.374 19.0071C164.639 18.6881 164.719 18.3425 164.745 18.0767C164.798 17.4387 164.029 15.95 163.181 14.4348C163.048 14.1689 163.128 13.8499 163.393 13.717C163.658 13.5841 163.976 13.6638 164.109 13.9297C165.435 16.3222 165.859 17.3855 165.779 18.183C165.7 18.7678 165.488 19.2729 165.143 19.6716C165.063 19.8311 164.931 19.8843 164.772 19.8843Z" fill="black"/>
<path d="M160.582 17.6247C160.37 17.6247 160.185 17.4918 160.105 17.3057L159.866 16.7475C159.76 16.4816 159.866 16.1626 160.131 16.0563C160.397 15.95 160.715 16.0563 160.821 16.3221L161.06 16.8804C161.166 17.1462 161.06 17.4652 160.794 17.5716C160.715 17.5981 160.662 17.6247 160.582 17.6247Z" fill="black"/>
<path d="M166.204 13.6903C165.992 13.6903 165.806 13.5574 165.7 13.3713L165.461 12.7865C165.355 12.5206 165.488 12.2016 165.753 12.0953C166.018 11.989 166.336 12.1219 166.442 12.3877L166.681 12.9726C166.787 13.2384 166.654 13.5574 166.389 13.6637C166.336 13.6903 166.283 13.6903 166.204 13.6903Z" fill="black"/>
<path d="M163.367 23.659C162.412 23.659 161.511 23.1274 161.086 22.2236C160.954 21.9577 161.086 21.6387 161.352 21.5058C161.617 21.3729 161.935 21.5058 162.068 21.7716C162.386 22.4894 163.261 22.8084 163.977 22.4628C164.056 22.4362 164.136 22.3831 164.189 22.3299C164.428 22.1438 164.746 22.197 164.931 22.4362C165.117 22.6755 165.064 22.9945 164.825 23.1806C164.693 23.2869 164.534 23.3666 164.428 23.4198C164.109 23.5793 163.738 23.659 163.367 23.659Z" fill="black"/>
<path d="M149.419 29.0024C149.26 29.0024 149.127 28.9492 149.021 28.8163C148.835 28.6036 148.862 28.2581 149.074 28.072L151.646 25.839C151.858 25.6529 152.203 25.6795 152.389 25.8921C152.574 26.1048 152.548 26.4504 152.336 26.6365L149.764 28.8695C149.658 28.9492 149.551 29.0024 149.419 29.0024Z" fill="black"/>
<path d="M166.389 7.12431C160.768 12.7334 151.619 11.2181 151.619 11.2181C154.324 15.3917 156.843 21.6122 153.635 28.2049C153.635 28.2049 150.267 25.4136 147.562 19.8045C144.858 14.1955 149.843 8.18765 153.396 5.8749C156.949 3.56216 161.908 1.06332 166.389 7.12431Z" fill="#E2D66B"/>
<path d="M244.084 172.712C239.656 170.532 234.724 169.389 229.792 169.389C225.018 169.389 220.405 170.425 216.082 172.419L216.056 172.446L216.029 172.419C213.881 169.628 211.654 166.571 209.48 163.301L209.453 163.248L209.533 163.195C209.612 163.142 216.427 158.622 226.45 158.622C226.689 158.622 226.928 158.622 227.193 158.622L225.761 156.841C221.757 151.817 222.049 144.507 226.424 139.828L228.227 137.914L228.254 137.967C230.189 141.131 231.489 143.178 232.098 144.055C237.057 151.153 242.307 152.588 249.202 152.588C249.865 152.588 250.607 152.561 251.403 152.535C251.641 152.535 251.907 152.535 252.145 152.535C259.252 152.535 262.301 156.257 262.328 156.283L262.354 156.31L244.137 172.738L244.084 172.712Z" fill="#F9494B"/>
<path d="M238.011 150.328C237.773 150.328 237.561 150.169 237.508 149.93L231.727 129.248C231.25 127.573 231.462 125.819 232.337 124.277C233.185 122.761 234.591 121.645 236.261 121.166C236.792 121.007 237.348 120.927 238.011 120.927C241.618 120.927 244.535 123.851 244.535 127.467C244.535 128.025 244.455 128.61 244.296 129.221L238.515 149.93C238.462 150.169 238.25 150.328 238.011 150.328ZM238.011 122.017C237.455 122.017 236.977 122.07 236.553 122.203C235.148 122.602 233.981 123.532 233.238 124.808C232.522 126.084 232.337 127.573 232.735 128.955L238.011 147.803L243.288 128.955C243.421 128.45 243.474 127.945 243.474 127.467C243.474 124.463 241.034 122.017 238.011 122.017Z" fill="black"/>
<path d="M238.118 150.302C237.826 150.302 237.614 150.089 237.587 149.797C237.561 149.504 237.799 149.265 238.091 149.238C242.069 148.999 243.978 147.324 245.993 145.57C247.611 144.134 249.281 142.672 252.039 141.928C252.331 141.848 252.622 142.008 252.675 142.3C252.755 142.593 252.596 142.885 252.304 142.938C249.785 143.629 248.274 144.932 246.683 146.341C244.614 148.149 242.493 150.036 238.144 150.275C238.144 150.302 238.118 150.302 238.118 150.302Z" fill="black"/>
<path d="M152.654 166.145C152.468 166.145 152.256 166.145 152.07 166.119C151.487 166.066 150.851 165.933 150.267 165.72L129.345 157.878C129.133 157.798 128.974 157.586 129.001 157.346C129.027 157.107 129.186 156.921 129.425 156.868L151.381 152.668C153.157 152.322 154.961 152.721 156.472 153.731C157.984 154.768 158.991 156.31 159.309 158.091C159.415 158.702 159.442 159.34 159.389 159.952C159.23 161.759 158.381 163.407 157.002 164.577C155.783 165.587 154.271 166.145 152.654 166.145ZM131.493 157.532L150.638 164.71C151.142 164.896 151.673 165.002 152.176 165.055C155.305 165.321 158.09 162.982 158.355 159.819C158.408 159.314 158.381 158.755 158.275 158.25C157.984 156.735 157.135 155.432 155.862 154.582C154.589 153.731 153.078 153.385 151.566 153.678L131.493 157.532Z" fill="black"/>
<path d="M235.492 155.512C235.413 155.512 235.333 155.485 235.254 155.459C234.989 155.326 234.883 155.007 235.015 154.741L237.667 149.425C237.799 149.159 238.117 149.052 238.383 149.185C238.648 149.318 238.754 149.637 238.621 149.903L235.97 155.22C235.864 155.406 235.678 155.512 235.492 155.512Z" fill="black"/>
<path d="M242.917 158.968C242.891 158.968 242.864 158.968 242.838 158.968C242.546 158.941 242.334 158.675 242.387 158.383L243.182 152.003C243.209 151.711 243.474 151.498 243.766 151.551C244.057 151.578 244.269 151.844 244.216 152.136L243.421 158.516C243.421 158.782 243.182 158.968 242.917 158.968Z" fill="black"/>
<path d="M189.38 73.8749C189.3 73.8749 189.247 73.8483 189.168 73.8217C180.205 69.8342 173.311 65.5543 169.068 62.6567C164.481 59.5199 162.041 57.3667 161.962 57.2603C161.749 57.0742 161.723 56.7286 161.909 56.516C162.094 56.3033 162.439 56.2767 162.651 56.4628C162.678 56.4894 165.144 58.6692 169.678 61.7795C173.868 64.6505 180.709 68.8772 189.592 72.8381C189.857 72.9444 189.99 73.2634 189.857 73.5293C189.778 73.7685 189.592 73.8749 189.38 73.8749Z" fill="black"/>
<path d="M207.385 132.65C207.199 132.65 207.04 132.571 206.934 132.411L196.937 117.498L180.417 132.518C180.231 132.677 179.966 132.704 179.781 132.571C179.569 132.438 179.489 132.199 179.569 131.959L186.251 111.57L162.783 108.991C162.545 108.965 162.333 108.779 162.306 108.513C162.28 108.274 162.439 108.034 162.651 107.955L186.039 99.8733L180.894 83.0727C180.815 82.8601 180.921 82.5942 181.107 82.4879C181.292 82.355 181.557 82.355 181.743 82.5145L197.467 95.2213L198.395 89.4793C198.449 89.1869 198.714 89.0008 199.005 89.0274C199.297 89.0805 199.483 89.3464 199.456 89.6388L198.395 96.2846C198.369 96.4707 198.236 96.6302 198.051 96.7099C197.865 96.7897 197.68 96.7365 197.52 96.6302L182.432 84.4285L187.232 100.059C187.311 100.325 187.179 100.618 186.887 100.724L165.249 108.194L187.02 110.586C187.179 110.613 187.311 110.693 187.418 110.826C187.524 110.959 187.524 111.118 187.471 111.278L181.213 130.364L196.698 116.302C196.804 116.195 196.964 116.142 197.123 116.169C197.282 116.195 197.414 116.275 197.494 116.408L206.854 130.391V113.776C206.854 113.617 206.934 113.457 207.066 113.351C207.199 113.245 207.358 113.218 207.517 113.245L214.73 115.052C215.022 115.132 215.181 115.425 215.128 115.69C215.075 115.956 214.756 116.142 214.491 116.089L207.942 114.441V132.119C207.942 132.358 207.782 132.571 207.57 132.624C207.491 132.65 207.438 132.65 207.385 132.65Z" fill="black"/>
<path d="M146.661 105.004C146.449 105.004 146.264 104.871 146.184 104.685L137.964 85.5981L123.91 95.3276C123.724 95.4605 123.486 95.4605 123.3 95.3276C123.114 95.1947 123.035 94.9554 123.114 94.7428L128.736 77.3839L119.906 77.3573C119.614 77.3573 119.375 77.1181 119.375 76.8256C119.375 76.5332 119.614 76.294 119.906 76.294L129.452 76.3206C129.611 76.3206 129.77 76.4003 129.876 76.5332C129.982 76.6662 130.009 76.8522 129.956 77.0117L124.573 93.5731L137.858 84.3753C137.99 84.2955 138.149 84.269 138.309 84.2955C138.468 84.3487 138.574 84.455 138.653 84.588L146.264 102.239L147.457 83.9765C147.457 83.8436 147.536 83.7107 147.642 83.6044C147.748 83.498 147.881 83.4715 148.04 83.4715L165.223 84.6411L149.658 75.2306C149.499 75.1243 149.419 74.9648 149.393 74.7787C149.393 74.5926 149.472 74.4331 149.631 74.3268L162.147 65.9265L148.199 65.9797C148.067 65.9797 147.908 65.9265 147.802 65.8202C147.695 65.7138 147.642 65.5809 147.669 65.4214L148.65 48.6208L139.528 63.534C139.422 63.6935 139.237 63.7998 139.051 63.7998C138.865 63.7998 138.68 63.6669 138.6 63.4808L134.782 54.9742C134.649 54.7084 134.782 54.3894 135.047 54.283C135.312 54.1501 135.63 54.283 135.736 54.5489L139.131 62.1251L148.862 46.2549C148.995 46.0422 149.233 45.9625 149.472 46.0156C149.711 46.0954 149.87 46.3081 149.843 46.5473L148.756 64.9163L163.897 64.8632C164.136 64.8632 164.348 65.0227 164.401 65.2353C164.481 65.448 164.375 65.7138 164.189 65.8202L150.904 74.7522L167.61 84.8804C167.822 85.0133 167.928 85.2525 167.848 85.4918C167.769 85.731 167.557 85.8905 167.318 85.864L148.491 84.5614L147.192 104.499C147.165 104.738 147.006 104.951 146.741 104.977C146.714 105.004 146.688 105.004 146.661 105.004Z" fill="black"/>
<path d="M214.889 61.0086C214.703 61.0086 214.517 60.9022 214.411 60.7162L209.559 51.0132C209.426 50.7474 209.532 50.4284 209.797 50.2955C210.063 50.1626 210.381 50.2689 210.513 50.5348L215.366 60.2376C215.499 60.5035 215.392 60.8225 215.127 60.9554C215.048 60.982 214.968 61.0086 214.889 61.0086Z" fill="black"/>
<path d="M199.43 73.1039C199.191 73.1039 198.979 72.9444 198.926 72.7317L193.782 55.7451L178.163 62.4174C177.951 62.5238 177.686 62.444 177.527 62.258C177.368 62.0719 177.368 61.806 177.527 61.6199L186.728 49.1258L170.606 42.5066C170.367 42.4268 170.235 42.1876 170.288 41.9483C170.314 41.7091 170.526 41.523 170.765 41.4964L182.91 40.3799C183.201 40.3533 183.467 40.566 183.493 40.8584C183.52 41.1508 183.307 41.4167 183.016 41.4433L173.019 42.3737L187.762 48.4347C187.921 48.4878 188.027 48.6207 188.081 48.7802C188.134 48.9397 188.08 49.0992 188.001 49.2322L179.569 60.7161L193.967 54.5754C194.1 54.5222 194.259 54.5222 194.392 54.5754C194.524 54.6286 194.63 54.7615 194.683 54.8944L199.456 70.6848L203.195 57.2869C203.248 57.1274 203.354 56.9945 203.513 56.9413C203.672 56.8881 203.831 56.8881 203.991 56.9945L213.537 62.8428C213.775 63.0023 213.855 63.3213 213.722 63.5605C213.563 63.7998 213.245 63.8795 212.98 63.7466L204.044 58.2705L199.987 72.7583C199.88 72.9444 199.668 73.1039 199.43 73.1039Z" fill="black"/>
<path d="M135.922 173.296C135.683 173.296 135.444 173.11 135.391 172.871C134.914 170.186 133.668 168.485 132.342 166.704C130.698 164.471 128.974 162.158 129.001 157.878L122.663 156.097C122.372 156.017 122.213 155.725 122.292 155.432C122.372 155.14 122.663 154.981 122.955 155.06L129.69 156.948C129.929 157.001 130.088 157.24 130.088 157.479C129.982 161.653 131.547 163.806 133.217 166.066C134.543 167.873 135.922 169.734 136.452 172.658C136.505 172.951 136.32 173.217 136.028 173.27C135.975 173.296 135.948 173.296 135.922 173.296Z" fill="black"/>
<path d="M127.383 163.806C127.357 163.806 127.33 163.806 127.304 163.806L120.595 162.69C120.303 162.636 120.118 162.371 120.171 162.078C120.224 161.786 120.489 161.6 120.781 161.653L127.489 162.769C127.781 162.823 127.967 163.088 127.914 163.381C127.861 163.62 127.648 163.806 127.383 163.806Z" fill="black"/>
<path d="M72.0728 171.595C69.5802 171.595 66.4512 171.01 65.5231 168.272C65.5231 168.192 65.1253 166.81 66.9815 165.215C67.8831 164.497 69.2885 163.939 70.3227 163.434L70.3757 163.407L70.4022 163.461C72.2319 166.358 75.6791 171.117 75.7056 171.17L75.7586 171.223L75.6791 171.25C75.6525 171.25 74.0085 171.595 72.0728 171.595Z" fill="black"/>
<path d="M8.77698 154.475C5.09114 147.617 7.98148 145.092 8.008 145.092C8.03451 145.092 8.14058 145.038 8.43226 145.038C8.9626 145.038 10.3945 145.118 11.5613 146.288C12.8871 147.617 13.8947 150.408 13.8947 150.435L13.9212 150.488L13.8682 150.515C12.5689 151.312 8.88305 154.475 8.83002 154.502L8.77698 154.555V154.475Z" fill="black"/>
<path d="M71.1978 90.3566L73.16 88.0439C81.1416 78.7397 82.653 78.1017 82.8651 78.0751C82.9182 78.0751 82.9977 78.0751 83.0508 78.0751C83.3425 78.0751 83.5546 78.1815 83.7137 78.3675C84.244 79.0321 84.138 80.6271 83.9523 81.4778C83.9258 81.6373 83.9523 81.7702 84.0319 81.9031L91.0058 91.7655C89.3883 95.1682 87.3995 98.4113 85.1191 101.415L85.0926 101.442L83.1833 103.276L71.1978 90.3566Z" fill="white"/>
<path d="M83.0507 78.6068C83.2098 78.6068 83.2628 78.66 83.2893 78.7132C83.634 79.1385 83.634 80.4145 83.4219 81.3715C83.3689 81.6639 83.4219 81.9829 83.581 82.2222L90.3958 91.8187C88.8313 95.0885 86.8956 98.1987 84.6947 101.07L83.2098 102.505L71.9136 90.3567L73.5311 88.4427L73.5576 88.4161C80.9028 79.8563 82.6529 78.7663 82.9711 78.6334C82.9976 78.6068 83.0241 78.6068 83.0507 78.6068ZM83.0507 77.5435C82.9711 77.5435 82.8916 77.5435 82.7855 77.5701C81.5392 77.7296 76.6336 83.1792 72.7356 87.7249L72.7091 87.7515L70.4817 90.3832L83.1567 103.994L85.4637 101.761L85.4902 101.708C87.8767 98.624 89.9185 95.248 91.5626 91.7124V91.6858L84.403 81.5842C84.5886 80.7335 84.7743 78.9258 84.0583 78.0486C83.8727 77.7296 83.5015 77.5435 83.0507 77.5435Z" fill="black"/>
<path d="M69.2618 112.341C68.7315 112.341 68.2012 112.314 67.6973 112.235C55.8974 110.666 44.9724 100.618 44.8664 100.511L44.8398 100.485L49.6394 85.7842H49.6924C55.314 86.2893 66.9284 93.2807 67.6973 93.7326C67.9625 93.387 70.1634 90.7287 72.7621 87.6716L72.7886 87.6185L85.5432 101.628L85.5166 101.654C81.8308 106.572 75.9971 112.341 69.2618 112.341Z" fill="#336B3C"/>
<path d="M0 164.285L0.0265184 164.258C1.85618 160.563 8.72404 154.475 8.77707 154.396C8.80359 154.369 12.5159 151.206 13.8153 150.408L13.8418 150.382H13.8683C16.573 151.498 21.293 157.267 24.7932 161.919C26.9941 164.843 28.6116 167.182 28.6116 167.209L28.6382 167.235L28.6116 167.262C26.066 169.495 23.706 172.153 23.706 176.194C23.706 184.116 21.3726 185.737 21.2665 185.817L21.24 185.844L0 164.285Z" fill="#336B3C"/>
<path d="M28.5586 167.315C28.5055 167.289 24.475 165.614 21.5316 162.45C18.6413 159.367 17.3419 156.921 15.9896 154.316C15.3532 153.12 14.6903 151.87 13.8682 150.515C10.4476 144.56 7.98151 145.118 8.00802 145.092C9.0687 144.321 11.1105 143.63 13.497 142.805C17.7662 141.343 23.0696 139.536 25.7743 136.319C30.2291 131.029 32.2444 117.365 32.2709 117.232V117.179L55.314 117.153V117.206C55.314 117.286 55.314 126.297 54.2533 131.561C51.8933 143.39 47.5181 149.77 40.2525 157.426C38.1311 159.579 35.8507 161.6 33.4376 163.434C33.1194 163.7 32.7747 163.939 32.4565 164.205C31.0776 165.268 29.7783 166.278 28.6116 167.289L28.5586 167.315Z" fill="#98D8F4"/>
<path d="M32.3506 117.312L38.2108 86.8741L52.6094 88.3894L52.6359 88.416C55.9771 93.1744 59.6629 98.8366 63.9586 105.376C66.4512 109.178 68.9968 113.112 71.7546 117.232L71.8076 117.312H32.3506Z" fill="#336B3C"/>
<path d="M88.8847 185.87C88.8317 185.817 82.9714 181.484 75.6263 171.249C75.5998 171.196 72.1526 166.438 70.3229 163.54L68.175 160.829L89.2029 146.687L91.6159 149.292L92.4379 150.754C97.6352 159.978 98.0595 160.749 102.726 161.866C103.946 162.158 105.033 162.397 105.988 162.583C109.435 163.301 111.159 163.673 112.034 165.348L112.06 165.375L88.9642 185.897L88.8847 185.87Z" fill="#336B3C"/>
<path d="M65.5229 168.299C65.3638 167.794 65.0456 166.305 64.6214 164.258C63.7993 160.403 62.5796 154.555 61.2802 150.488C59.1854 143.922 54.1737 138.339 54.1207 138.286C54.0942 138.26 50.4879 134.91 46.749 130.683C43.3018 126.776 39.0061 121.273 38.1841 117.285V117.232H71.7544L71.7809 117.259C77.482 125.633 82.3346 133.315 86.3121 140.094C88.513 143.815 90.2366 146.846 91.642 149.318V149.345V149.371C91.6155 149.398 90.2631 153.226 86.047 156.124C83.1036 158.144 79.3117 159.739 75.6259 161.281C73.8757 161.998 72.0726 162.769 70.4551 163.54C65.2313 165.959 65.5229 168.299 65.5229 168.299Z" fill="#98D8F4"/>
<path d="M52.8478 137.489C52.7152 137.489 52.5826 137.435 52.4766 137.329C50.8856 135.787 47.7831 132.677 44.8132 129.062C44.6276 128.849 44.6541 128.504 44.8928 128.317C45.1314 128.131 45.4496 128.158 45.6352 128.397C48.5786 131.959 51.6546 135.043 53.2456 136.558C53.4577 136.771 53.4577 137.09 53.2456 137.303C53.113 137.435 52.9804 137.489 52.8478 137.489Z" fill="black"/>
<path d="M93.4188 162.158C93.2862 162.158 93.1536 162.105 93.0475 161.999C92.8354 161.786 92.8354 161.467 93.0475 161.254L96.4947 157.798C96.7069 157.586 97.0251 157.586 97.2372 157.798C97.4493 158.011 97.4493 158.33 97.2372 158.543L93.79 161.999C93.6839 162.105 93.5514 162.158 93.4188 162.158Z" fill="black"/>
<path d="M97.3963 166.146C97.2902 166.146 97.2106 166.119 97.1311 166.066C96.8924 165.906 96.8129 165.587 96.9455 165.321L99.7032 160.829C99.8623 160.59 100.181 160.51 100.446 160.643C100.684 160.802 100.764 161.121 100.631 161.387L97.847 165.88C97.741 166.066 97.5819 166.146 97.3963 166.146Z" fill="black"/>
<path d="M25.1644 171.834C25.0849 171.834 25.0053 171.808 24.9258 171.781L21.3195 170.08C21.0543 169.947 20.9482 169.628 21.0543 169.362C21.1869 169.096 21.5051 168.99 21.7703 169.096L25.3766 170.798C25.6417 170.93 25.7478 171.249 25.6417 171.515C25.5622 171.728 25.35 171.834 25.1644 171.834Z" fill="black"/>
<path d="M23.7325 175.795C23.7059 175.795 23.6794 175.795 23.6529 175.795L19.6489 175.237C19.3572 175.184 19.1451 174.918 19.1981 174.626C19.2511 174.333 19.5163 174.12 19.808 174.174L23.812 174.732C24.1037 174.785 24.3158 175.051 24.2628 175.343C24.2098 175.609 23.9976 175.795 23.7325 175.795Z" fill="black"/>
<path d="M68.2279 112.713C68.0422 112.713 67.8831 112.633 67.7771 112.474L59.822 100.246C59.6629 100.006 59.7425 99.6607 59.9811 99.5012C60.2198 99.3417 60.5645 99.4215 60.7236 99.6607L68.6786 111.889C68.8377 112.128 68.7582 112.474 68.5195 112.633C68.44 112.686 68.3339 112.713 68.2279 112.713Z" fill="black"/>
<path d="M38.2638 44.1282C50.419 44.1282 60.2728 34.2498 60.2728 22.0641C60.2728 9.87844 50.419 0 38.2638 0C26.1086 0 16.2549 9.87844 16.2549 22.0641C16.2549 34.2498 26.1086 44.1282 38.2638 44.1282Z" fill="#F9494B"/>
<path d="M44.6544 37.8811C44.4953 37.8811 44.3362 37.8014 44.2567 37.6951L36.3281 28.0985L28.0549 34.2924C27.8693 34.4253 27.6041 34.4253 27.4185 34.2924C27.2329 34.1595 27.1533 33.9202 27.2329 33.681L30.7066 23.6591L22.9637 17.5981C22.778 17.4652 22.725 17.2259 22.778 17.0133C22.8576 16.8006 23.0432 16.6411 23.2819 16.6411L32.5893 16.455L33.809 6.1673C33.8356 5.92805 34.0212 5.74196 34.2598 5.71538C34.4985 5.6888 34.7106 5.79513 34.8167 6.0078L39.2715 15.1524L47.5182 8.21421C47.7039 8.05471 47.969 8.0547 48.1546 8.18762C48.3403 8.32054 48.4463 8.55979 48.3668 8.79904L44.84 19.1931L54.6778 22.4894C54.9164 22.5692 55.049 22.7818 55.049 23.0211C55.049 23.2603 54.8634 23.473 54.6248 23.5262L43.5407 26.0782L45.2113 37.2963C45.2378 37.5356 45.1317 37.7748 44.8931 37.8546C44.8135 37.8546 44.734 37.8811 44.6544 37.8811ZM36.4077 26.8225C36.5668 26.8225 36.6994 26.8757 36.8054 27.0086L43.8324 35.5418L42.374 25.7326C42.3209 25.4667 42.5066 25.2009 42.7717 25.1478L52.5034 22.9148L43.965 20.0703C43.8324 20.0172 43.7263 19.9374 43.6468 19.8045C43.5938 19.6716 43.5672 19.5387 43.6203 19.4058L46.7227 10.3143L39.4041 16.4019C39.2715 16.5082 39.1124 16.5348 38.9533 16.5082C38.7942 16.4816 38.6616 16.3753 38.5821 16.2158L34.6311 8.10787L33.5704 17.0399C33.5439 17.3057 33.3317 17.4918 33.0666 17.5184L24.7933 17.6779L31.6612 23.0477C31.8468 23.1806 31.8998 23.4198 31.8468 23.6325L28.7974 32.405L36.0895 26.9288C36.1956 26.8491 36.3016 26.8225 36.4077 26.8225Z" fill="black"/>
<path d="M95.0099 99.1556C94.8508 99.1556 94.6917 99.0759 94.5856 98.943L50.5677 40.4598C50.3821 40.2205 50.4351 39.9015 50.6737 39.7154C50.9124 39.5293 51.2306 39.5825 51.4162 39.8217L95.4341 98.3049C95.6198 98.5442 95.5667 98.8632 95.3281 99.0493C95.222 99.129 95.1159 99.1556 95.0099 99.1556Z" fill="black"/>
<path d="M49.1885 37.8812L58.708 41.8952L50.4878 48.1423L49.1885 37.8812Z" fill="#F9494B"/>
<path d="M49.5865 41.5231C49.4274 41.5231 49.2683 41.4434 49.1622 41.3105C49.0031 41.0712 49.0562 40.7522 49.2948 40.5661L51.8935 38.7053C52.1321 38.5458 52.4503 38.599 52.6359 38.8382C52.795 39.0775 52.742 39.3965 52.5034 39.5825L49.9047 41.4434C49.7986 41.4965 49.6926 41.5231 49.5865 41.5231Z" fill="black"/>
<path d="M22.3538 163.753C22.1947 163.753 22.0621 163.7 21.956 163.567C21.7704 163.328 21.7969 163.009 22.0356 162.823C22.1151 162.769 29.1951 156.868 35.2675 151.152C40.2791 146.421 44.2301 140.041 47.3326 131.694C47.4387 131.428 47.7304 131.268 48.0221 131.375C48.2872 131.481 48.4463 131.773 48.3403 132.066C45.1848 140.599 41.1542 147.085 36.0099 151.95C29.9111 157.692 22.8046 163.62 22.725 163.673C22.5924 163.7 22.4864 163.753 22.3538 163.753Z" fill="black"/>
<path d="M15.7243 154.21C15.5652 154.21 15.4326 154.156 15.3266 154.024C15.1409 153.811 15.1409 153.465 15.3796 153.279C17.7926 151.126 20.7625 149.106 23.6528 147.192C26.4371 145.331 29.0358 143.55 30.7594 141.902C36.1953 136.638 40.1993 129.221 44.1503 117.046C44.2299 116.78 44.5481 116.621 44.8133 116.701C45.1049 116.78 45.2375 117.099 45.158 117.365C41.1539 129.7 37.0704 137.276 31.5018 142.646C29.7252 144.347 27.0735 146.155 24.2627 148.042C21.4254 149.956 18.4821 151.95 16.1221 154.05C15.963 154.156 15.8569 154.21 15.7243 154.21Z" fill="black"/>
<path d="M85.9941 156.576C85.782 156.576 85.5964 156.469 85.5168 156.256C80.7968 146.075 73.3986 130.976 63.8261 117.498C63.667 117.259 63.72 116.94 63.9586 116.754C64.1973 116.594 64.5155 116.647 64.7011 116.887C74.3267 130.444 81.7514 145.597 86.4979 155.805C86.6305 156.07 86.4979 156.389 86.2328 156.522C86.1532 156.549 86.0737 156.576 85.9941 156.576Z" fill="black"/>
<path d="M75.1219 161.919C74.9098 161.919 74.6976 161.786 74.6181 161.573C71.4096 152.402 68.6518 145.597 65.6289 139.536C62.9242 134.086 60.1664 130.683 57.2496 127.095C55.0487 124.357 52.7682 121.539 50.2756 117.604C50.1165 117.365 50.1961 117.02 50.4347 116.86C50.6734 116.701 51.0181 116.78 51.1772 117.02C53.6433 120.927 55.8972 123.719 58.0981 126.43C61.0415 130.072 63.8257 133.501 66.5835 139.057C69.6329 145.145 72.4172 151.977 75.6257 161.201C75.7318 161.467 75.5727 161.786 75.3075 161.866C75.228 161.919 75.1749 161.919 75.1219 161.919Z" fill="black"/>
<path d="M97.3963 178.826C97.2902 178.826 97.2107 178.799 97.1046 178.746C90.7936 174.705 83.2628 176.061 80.1604 177.337C79.8952 177.443 79.577 177.31 79.4709 177.045C79.3649 176.779 79.4975 176.46 79.7626 176.353C84.3235 174.466 91.8808 174.147 97.6615 177.869C97.9001 178.028 97.9797 178.347 97.8206 178.613C97.741 178.746 97.5819 178.826 97.3963 178.826Z" fill="black"/>
<path d="M6.94743 171.781C6.86788 171.781 6.81485 171.781 6.7353 171.728C6.47013 171.622 6.33755 171.303 6.44361 171.037C7.61035 168.219 7.82249 161.334 5.46249 157.426C5.30339 157.187 5.38294 156.841 5.64811 156.708C5.88676 156.549 6.23148 156.629 6.36406 156.895C8.90967 161.148 8.69754 168.379 7.39822 171.462C7.34519 171.648 7.15957 171.781 6.94743 171.781Z" fill="black"/>
<path d="M52.2651 125.978C51.3635 125.978 50.3294 125.925 49.1892 125.792C45.9276 125.446 42.4274 125.021 38.6885 124.303L35.9573 123.32L40.9955 108.433L43.0108 108.539C49.2952 110.294 53.1932 111.464 53.9887 111.809C54.8638 112.208 55.3676 112.66 55.4471 113.112C55.5267 113.511 55.2615 113.83 55.182 113.909C55.0759 114.042 55.0229 114.228 55.0759 114.388C55.1289 114.547 55.2615 114.68 55.4206 114.76C57.2768 115.345 58.417 116.142 58.7883 117.02C59.0004 117.551 58.8413 117.977 58.7883 118.03C58.7087 118.216 58.7352 118.428 58.8413 118.588C58.8943 118.668 59.4247 119.332 59.3451 120.05C59.2921 120.422 59.0799 120.768 58.6822 121.06C58.4966 121.193 58.417 121.459 58.4966 121.672C58.6557 122.123 58.6557 122.496 58.4966 122.815C58.1784 123.399 57.4359 123.612 57.2768 123.665C57.0116 123.745 56.8525 123.984 56.879 124.25C56.879 124.33 56.9056 124.569 56.6669 124.862C56.3487 125.287 55.3411 125.978 52.2651 125.978Z" fill="white"/>
<path d="M41.3664 108.991L42.9044 109.071C51.6285 111.49 53.4051 112.155 53.7498 112.314C54.5453 112.686 54.89 113.032 54.9166 113.245C54.9431 113.404 54.784 113.59 54.784 113.617C54.5453 113.883 54.4658 114.255 54.5718 114.6C54.6779 114.946 54.9431 115.212 55.2613 115.318C56.9318 115.85 57.9925 116.541 58.2842 117.259C58.4168 117.604 58.3107 117.844 58.3107 117.844C58.1251 118.216 58.1781 118.641 58.4433 118.96C58.6024 119.146 58.8676 119.625 58.841 120.023C58.841 120.103 58.788 120.369 58.3903 120.661C58.019 120.927 57.8599 121.432 58.019 121.884C58.1781 122.336 58.0721 122.522 58.0455 122.602C57.8864 122.921 57.3826 123.107 57.144 123.187C56.6136 123.32 56.2954 123.825 56.3485 124.357C56.3485 124.357 56.3485 124.436 56.2424 124.569C56.0833 124.782 55.2878 125.5 52.2383 125.5C51.3368 125.5 50.3291 125.446 49.2154 125.314C45.9804 124.968 42.4802 124.543 38.7943 123.851L36.5934 123.054L41.3664 108.991ZM40.5975 107.875L35.2676 123.639L38.5292 124.808C42.2945 125.526 45.8478 125.952 49.1094 126.324C50.2761 126.457 51.3368 126.51 52.2649 126.51C55.3939 126.51 56.6136 125.792 57.0909 125.181C57.4357 124.729 57.4356 124.33 57.4091 124.17C57.6213 124.117 58.5494 123.825 58.9736 123.081C59.2123 122.629 59.2388 122.097 59.0267 121.512C59.557 121.14 59.8487 120.661 59.9017 120.156C60.0078 119.253 59.4244 118.455 59.2918 118.296C59.3714 118.163 59.5835 117.578 59.2918 116.86C58.8676 115.823 57.6478 114.946 55.606 114.308C55.7386 114.149 56.0833 113.67 55.9772 113.059C55.8712 112.421 55.2613 111.836 54.2006 111.357C53.1399 110.879 47.5714 109.284 43.09 108.034L40.5975 107.875Z" fill="black"/>
<path d="M38.5294 124.808C24.5816 122.15 17.5281 117.179 17.5281 110.055C17.5281 101.203 29.5932 92.1908 34.7905 88.735L43.9388 84.136L34.8966 105.775C35.4004 105.908 39.0862 106.918 43.0903 108.034L43.1433 108.061L38.5824 124.862L38.5294 124.808Z" fill="#336B3C"/>
<path d="M54.7044 115.106C54.6514 115.106 54.6249 115.106 54.5718 115.079L51.3898 114.282C51.0981 114.202 50.939 113.909 50.992 113.643C51.0716 113.351 51.3633 113.192 51.6284 113.245L54.8105 114.042C55.1022 114.122 55.2613 114.414 55.2082 114.68C55.1552 114.946 54.9431 115.106 54.7044 115.106Z" fill="black"/>
<path d="M58.6815 119.093C58.655 119.093 58.655 119.093 58.6285 119.093C58.5224 119.093 56.1094 118.801 47.1732 116.701C46.8816 116.621 46.7225 116.355 46.7755 116.063C46.8285 115.77 47.1202 115.611 47.4119 115.664C56.2685 117.737 58.7346 118.03 58.7611 118.056C59.0528 118.083 59.2649 118.349 59.2384 118.641C59.1854 118.88 58.9467 119.093 58.6815 119.093Z" fill="black"/>
<path d="M58.4167 121.751C56.6931 121.751 49.7987 120.927 46.325 119.864C46.0333 119.784 45.9007 119.492 45.9803 119.199C46.0598 118.907 46.3515 118.774 46.6432 118.854C49.9578 119.864 56.7726 120.688 58.4167 120.688C58.7083 120.688 58.947 120.927 58.947 121.22C58.947 121.512 58.7083 121.751 58.4167 121.751Z" fill="black"/>
<path d="M56.8258 124.41C54.2006 124.41 49.1624 123.905 45.5827 123.054C45.291 123.001 45.1319 122.708 45.1849 122.416C45.2379 122.124 45.5296 121.964 45.8213 122.017C49.2155 122.815 54.2536 123.32 56.8523 123.32C57.144 123.32 57.3826 123.559 57.3826 123.851C57.3826 124.144 57.1175 124.41 56.8258 124.41Z" fill="black"/>
<path d="M43.567 109.257C43.5139 109.257 43.4609 109.257 43.4344 109.231L30.9715 105.775C30.6798 105.695 30.5207 105.403 30.6002 105.11C30.6798 104.818 30.9715 104.658 31.2632 104.738L43.7261 108.194C44.0177 108.274 44.1768 108.566 44.0973 108.858C44.0177 109.098 43.8056 109.257 43.567 109.257Z" fill="black"/>
<path d="M34.8166 106.333C34.737 106.333 34.684 106.306 34.6044 106.28C34.3393 106.174 34.2067 105.855 34.3127 105.589L37.044 99.0758C37.15 98.81 37.4682 98.6771 37.7334 98.7834C37.9986 98.8897 38.1311 99.2088 38.0251 99.4746L35.2939 105.987C35.2143 106.2 35.0287 106.333 34.8166 106.333Z" fill="black"/>
<path d="M37.4415 90.0376C34.5247 90.0376 32.1382 87.6451 32.1382 84.7209C32.1382 81.7967 34.5247 79.4042 37.4415 79.4042C40.3584 79.4042 42.7449 81.7967 42.7449 84.7209C42.7449 87.6717 40.3584 90.0376 37.4415 90.0376Z" fill="white"/>
<path d="M37.4416 79.9625C40.0668 79.9625 42.2146 82.1157 42.2146 84.7475C42.2146 87.3792 40.0668 89.5325 37.4416 89.5325C34.8164 89.5325 32.6686 87.3792 32.6686 84.7475C32.6686 82.1157 34.8164 79.9625 37.4416 79.9625ZM37.4416 78.8992C34.2331 78.8992 31.6079 81.5043 31.6079 84.7475C31.6079 87.9906 34.2066 90.5958 37.4416 90.5958C40.6767 90.5958 43.2753 87.9906 43.2753 84.7475C43.2753 81.5043 40.6501 78.8992 37.4416 78.8992Z" fill="black"/>
<path d="M49.003 92.3769C46.4839 92.3769 44.0974 90.7819 42.1087 87.7248C35.2143 77.1978 36.328 72.5192 40.332 68.3988C40.3585 68.3722 45.0255 63.7999 50.7797 63.7999C51.9199 63.7999 53.0071 63.9859 54.0943 64.3315C58.1513 65.6607 60.0606 72.785 58.5491 80.8929C57.2498 87.6451 53.3253 92.3769 49.003 92.3769Z" fill="white"/>
<path d="M50.7533 64.3316C51.8139 64.3316 52.8746 64.4911 53.8823 64.8367C55.6059 65.3949 56.9847 67.2292 57.7802 70.0204C58.6288 73.0243 58.7083 76.8523 57.9659 80.7866C57.356 84.1095 56.1097 86.9274 54.3596 88.9743C52.7686 90.8351 50.8593 91.8453 48.9767 91.8453C46.6432 91.8453 44.3892 90.33 42.5066 87.459C35.8243 77.251 36.832 72.7319 40.6504 68.7976C40.8625 68.6115 45.3173 64.3316 50.7533 64.3316ZM50.7533 63.2682C44.7074 63.2682 39.9079 68.0267 39.9079 68.0267C35.4266 72.6521 34.9758 77.8625 41.6315 88.0173C43.8589 91.3933 46.4576 92.9086 48.9767 92.9086C53.458 92.9086 57.6742 88.2033 59.0265 80.9727C60.6175 72.4395 58.4697 65.2088 54.227 63.7999C53.0602 63.4277 51.8935 63.2682 50.7533 63.2682Z" fill="black"/>
<path d="M53.7495 81.0258C53.5904 81.0258 53.4313 80.9461 53.3252 80.8131C53.1396 80.5739 53.1927 80.2549 53.4313 80.0688C53.6965 79.8561 53.9086 79.5903 54.0147 79.2713C54.2268 78.6067 53.776 76.7193 53.4048 75.3636C53.3252 75.0712 53.4843 74.7787 53.776 74.699C54.0677 74.6192 54.3594 74.7787 54.439 75.0712C55.1019 77.57 55.261 78.8194 55.0223 79.6169C54.8367 80.1486 54.5185 80.5739 54.0677 80.9195C53.9882 80.9992 53.8556 81.0258 53.7495 81.0258Z" fill="black"/>
<path d="M50.223 77.8093C49.9578 77.8093 49.7457 77.6232 49.6927 77.3574L49.6131 76.7459C49.5866 76.4535 49.7722 76.1877 50.0639 76.1611C50.3556 76.1345 50.6208 76.3206 50.6473 76.613L50.7268 77.2244C50.7533 77.5169 50.5677 77.7827 50.276 77.8093C50.276 77.8093 50.2495 77.8093 50.223 77.8093Z" fill="black"/>
<path d="M56.6397 75.3636C56.3746 75.3636 56.1624 75.1775 56.1094 74.9117L56.0299 74.3269C56.0033 74.0344 56.189 73.7686 56.4806 73.7154C56.7723 73.6623 57.0375 73.8749 57.0905 74.1674L57.1701 74.7522C57.1966 75.0446 57.011 75.3104 56.7193 75.3636C56.6928 75.3636 56.6663 75.3636 56.6397 75.3636Z" fill="black"/>
<path d="M51.9464 84.4019C50.7532 84.4019 49.6925 83.5778 49.4539 82.355C49.4008 82.0626 49.5864 81.7967 49.8781 81.717C50.1698 81.6638 50.435 81.8499 50.5145 82.1423C50.6736 82.9398 51.4161 83.4449 52.2116 83.312C52.3177 83.2854 52.3707 83.2854 52.3972 83.2588C52.6624 83.1259 52.9806 83.2322 53.1132 83.498C53.2458 83.7639 53.1397 84.0829 52.8745 84.2158C52.7154 84.2955 52.5298 84.3487 52.3972 84.3753C52.2381 84.4019 52.1055 84.4019 51.9464 84.4019Z" fill="black"/>
<path d="M36.5932 86.0234C36.4076 86.0234 36.222 85.9171 36.1159 85.731C35.9833 85.4652 36.0894 85.1462 36.3546 85.0133L39.404 83.498C39.6692 83.3651 39.9874 83.4714 40.12 83.7373C40.2525 84.0031 40.1465 84.3221 39.8813 84.455L36.8319 85.9703C36.7523 85.9969 36.6728 86.0234 36.5932 86.0234Z" fill="black"/>
<path d="M58.3107 69.0635C51.4959 73.0775 42.984 69.3293 42.984 69.3293C44.5485 74.0345 45.4766 80.707 40.7036 86.2895C40.7036 86.2895 38.1315 82.7539 36.9117 76.6397C35.6919 70.5255 42.0029 65.9532 46.0069 64.5975C50.011 63.2417 55.5 62.072 58.3107 69.0635Z" fill="#E2D66B"/>
<path d="M88.142 94.3175C86.9753 94.3175 86.7631 92.8023 86.7366 92.5099C86.7101 92.2706 86.5245 92.0579 86.2593 92.0314C85.6494 91.9516 85.1986 91.7389 84.907 91.3668C84.4562 90.7554 84.5622 89.8781 84.5888 89.7186C84.6153 89.5857 84.5622 89.4262 84.4827 89.3198C84.4031 89.2135 84.2706 89.1338 84.1115 89.1072C83.5016 89.0274 83.0508 88.8148 82.7856 88.4426C82.3083 87.8046 82.4409 86.8742 82.4674 86.7944C82.4939 86.5552 82.3879 86.3425 82.1757 86.2362C81.115 85.7311 80.6643 85.0931 80.8234 84.4019C81.1681 82.8335 84.191 81.0524 85.9941 81.0524C86.4715 81.0524 87.3995 81.398 87.6382 82.7538C87.6912 82.993 87.9034 83.1791 88.142 83.1791C88.858 83.1791 89.3883 83.4449 89.7065 83.8968C90.0512 84.3753 90.0777 84.9602 89.9452 85.3058C89.8921 85.4387 89.9186 85.5982 89.9717 85.7311C90.0512 85.864 90.1573 85.9438 90.2899 85.9969C90.7141 86.1298 91.0589 86.3957 91.2975 86.7944C91.5892 87.2995 91.6687 87.9641 91.5096 88.5489C91.4566 88.735 91.5096 88.9211 91.6422 89.054C92.04 89.4793 92.2521 90.0642 92.2256 90.7022C92.1991 91.4465 91.8278 92.1909 91.218 92.6959C89.627 94.0517 88.6723 94.3175 88.142 94.3175Z" fill="white"/>
<path d="M85.9941 81.5575C85.9941 81.5575 86.8956 81.5841 87.1078 82.8069C87.1873 83.312 87.6381 83.6842 88.1419 83.6842C88.6723 83.6842 89.0435 83.8437 89.2822 84.1893C89.5208 84.5349 89.5208 84.9602 89.4678 85.1463C89.3882 85.4121 89.4147 85.7311 89.5473 85.9704C89.6799 86.2362 89.9186 86.4223 90.2103 86.502C90.5019 86.5818 90.7406 86.7679 90.8997 87.0603C91.1118 87.4324 91.1914 87.9641 91.0588 88.3894C90.9527 88.735 91.0588 89.1338 91.324 89.3996C91.6422 89.7186 91.8013 90.1705 91.7747 90.649C91.7482 91.2604 91.43 91.8453 90.9527 92.2706C89.3882 93.5998 88.5397 93.7858 88.1685 93.7858C87.4525 93.7858 87.3199 92.5896 87.2934 92.4567C87.2404 91.9516 86.8426 91.5529 86.3653 91.4997C85.6759 91.4199 85.4637 91.1275 85.3842 91.0478C85.0395 90.5958 85.1455 89.8781 85.1455 89.7983C85.1986 89.5059 85.119 89.2135 84.9334 89.0008C84.7478 88.7616 84.5091 88.6287 84.2175 88.5755C83.528 88.4958 83.3159 88.2034 83.2363 88.1236C82.8916 87.6451 82.9977 86.9008 83.0242 86.8742C83.1038 86.3957 82.8651 85.9438 82.4408 85.7311C81.2211 85.1463 81.3271 84.6412 81.3802 84.4817C81.6188 83.2589 84.297 81.5575 85.9941 81.5575ZM85.9941 80.4942C83.9788 80.4942 80.7172 82.3816 80.3195 84.2425C80.1604 84.9336 80.3195 85.8906 81.9635 86.6881C81.937 86.9008 81.8044 87.9641 82.3878 88.7616C82.759 89.2667 83.3159 89.5591 84.0849 89.6389C84.0584 89.9047 83.9258 90.9149 84.5091 91.6858C84.8804 92.1909 85.4637 92.4833 86.2327 92.563C86.2592 92.882 86.5244 94.8492 88.1685 94.8492C89.07 94.8492 90.2368 94.2643 91.6156 93.0681C92.3316 92.4567 92.7824 91.5794 92.8354 90.7022C92.8619 89.9313 92.6233 89.1869 92.1195 88.6553C92.3051 87.9375 92.199 87.14 91.8543 86.502C91.5626 85.9704 91.0853 85.6248 90.5284 85.4653C90.6875 84.9602 90.661 84.2159 90.2103 83.5779C89.9186 83.1525 89.3087 82.6209 88.2215 82.6209C87.8503 80.9461 86.604 80.4942 85.9941 80.4942Z" fill="black"/>
<path d="M86.6573 92.6693C86.5513 92.6693 86.4717 92.6427 86.3657 92.5895C86.127 92.43 86.0475 92.111 86.2066 91.8452C87.6119 89.5856 90.9796 88.3362 91.1122 88.283C91.3773 88.1767 91.6955 88.3096 91.8016 88.602C91.9077 88.8679 91.7751 89.1869 91.4834 89.2932C91.4569 89.2932 88.3279 90.4894 87.1081 92.43C87.0021 92.5895 86.843 92.6693 86.6573 92.6693Z" fill="black"/>
<path d="M84.5089 89.7717C84.4029 89.7717 84.2968 89.7451 84.1907 89.6654C83.9521 89.4793 83.9256 89.1603 84.0847 88.921C84.1642 88.8147 85.9939 86.4488 89.6532 85.3589C89.9449 85.2791 90.2366 85.4386 90.3161 85.7045C90.3957 85.9969 90.2366 86.2893 89.9714 86.369C86.6303 87.3526 84.9597 89.5325 84.9332 89.559C84.8271 89.692 84.668 89.7717 84.5089 89.7717Z" fill="black"/>
<path d="M82.5469 86.821C82.4144 86.821 82.2818 86.7678 82.1757 86.6615C81.9636 86.4488 81.9636 86.1298 82.1757 85.9172L82.3348 85.7577C83.1833 84.907 84.5887 83.4715 87.4526 82.7006C87.7442 82.6208 88.0359 82.7803 88.1155 83.0727C88.195 83.3652 88.0359 83.6576 87.7442 83.7373C85.1456 84.4551 83.9258 85.7045 83.1038 86.5286L82.9447 86.6881C82.8121 86.7678 82.6795 86.821 82.5469 86.821Z" fill="black"/>
</svg>
